<svg width="66" height="98" viewBox="0 0 66 98" fill="none" xmlns="http://www.w3.org/2000/svg">
<g clip-path="url(#clip0)">
<path d="M24.1154 37.3958C24.1154 37.3958 12.5769 36.6247 9.11538 42.4076C9.11538 42.4076 5.65384 41.251 10.2692 38.1668C14.8846 35.0826 21.8077 31.2274 23.7308 33.926C25.6538 36.6247 24.1154 37.3958 24.1154 37.3958Z" fill="black" stroke="black" stroke-width="2" stroke-miterlimit="10"/>
<path d="M41 37.3958C41 37.3958 52.5385 36.6247 56 42.4076C56 42.4076 59.4615 41.251 54.8462 38.1668C50.2308 35.0826 43.3077 31.2274 41.3846 33.926C39.4615 36.6247 41 37.3958 41 37.3958Z" fill="black" stroke="black" stroke-width="2" stroke-miterlimit="10"/>
<path d="M32.8846 97.1519C32.8846 97.1519 42.2308 100.236 49.9615 90.2124C57.6923 80.1888 61.3462 63.2258 60.5385 60.5272C60.5385 60.5272 59.3077 72.4784 56.4615 71.7073C53.6154 70.9363 53.1923 63.6113 48.3462 61.6837C43.5 59.7561 34.1154 59.4862 32.8846 61.5681C31.6539 59.5248 22.3077 59.7561 17.4231 61.6837C12.5385 63.6113 12.1539 70.9363 9.3077 71.7073C6.46154 72.4784 5.23077 60.5272 5.23077 60.5272C4.42308 63.2258 8.07693 80.1888 15.8077 90.2124C23.5385 100.236 32.9231 97.1519 32.8846 97.1519Z" fill="black" stroke="black" stroke-width="2" stroke-miterlimit="10"/>
<path d="M60.8461 59.9488C60.8461 59.9488 73.3461 31.2274 57.9615 15.8064C42.5769 0.385498 34.5 0.385498 34.5 0.385498H28.3461C28.3461 0.385498 21.3461 1.54207 4.88461 15.8064C-6.23077 25.4445 6.99999 57.3273 5.07692 59.9488C5.07692 59.9488 6.23076 32.5767 8.92307 27.5649C11.6154 22.5531 16.2308 12.144 31.4231 11.9512C46.6154 11.7584 53.9231 19.0834 56.2308 22.9386C58.5384 26.7938 61.6154 54.166 60.8461 59.9488Z" fill="black" stroke="black" stroke-width="2" stroke-miterlimit="10"/>
</g>
<defs>
<clipPath id="clip0">
<rect width="66" height="98" fill="white"/>
</clipPath>
</defs>
</svg>
