<svg width="95" height="138" viewBox="0 0 95 138" fill="none" xmlns="http://www.w3.org/2000/svg">
<g clip-path="url(#clip0)">
<path d="M35.208 52.6594C35.208 52.6594 18.7744 51.5736 13.8443 59.7168C13.8443 59.7168 8.91425 58.0882 15.4877 53.7451C22.0611 49.4021 31.9212 43.9733 34.6602 47.7735C37.3991 51.5736 35.208 52.6594 35.208 52.6594Z" fill="black" stroke="black" stroke-width="2" stroke-miterlimit="10"/>
<path d="M59.2559 52.6594C59.2559 52.6594 75.6895 51.5736 80.6196 59.7168C80.6196 59.7168 85.5497 58.0882 78.9762 53.7451C72.4028 49.4021 62.5426 43.9733 59.8037 47.7735C57.0648 51.5736 59.2559 52.6594 59.2559 52.6594Z" fill="black" stroke="black" stroke-width="2" stroke-miterlimit="10"/>
<path d="M47.6976 136.806C47.6976 136.806 61.0088 141.149 72.0193 127.034C83.0298 112.919 88.2337 89.0323 87.0834 85.2321C87.0834 85.2321 85.3305 102.061 81.2769 100.976C77.2233 99.8899 76.6207 89.5752 69.7186 86.8608C62.8165 84.1464 49.4505 83.7664 47.6976 86.6979C45.9447 83.8206 32.6335 84.1464 25.6766 86.8608C18.7198 89.5752 18.172 99.8899 14.1184 100.976C10.0648 102.061 8.31185 85.2321 8.31185 85.2321C7.1615 89.0323 12.3655 112.919 23.3759 127.034C34.3864 141.149 47.7524 136.806 47.6976 136.806Z" fill="black" stroke="black" stroke-width="2" stroke-miterlimit="10"/>
<path d="M87.5216 84.4177C87.5216 84.4177 105.325 43.9732 83.4133 22.258C61.5018 0.542847 49.9983 0.542847 49.9983 0.542847H41.2338C41.2338 0.542847 31.2641 2.17149 7.81885 22.258C-8.01215 35.83 10.8317 80.7262 8.09275 84.4177C8.09275 84.4177 9.7361 45.8733 13.5706 38.8159C17.4051 31.7584 23.9785 17.1007 45.6161 16.8292C67.2536 16.5578 77.6615 26.8725 80.9482 32.3013C84.2349 37.7301 88.6172 76.2746 87.5216 84.4177Z" fill="black" stroke="black" stroke-width="2" stroke-miterlimit="10"/>
</g>
<defs>
<clipPath id="clip0">
<rect width="94" height="138" fill="white" transform="translate(0.861893)"/>
</clipPath>
</defs>
</svg>
