<svg width="130" height="96" viewBox="0 0 130 96" fill="none" xmlns="http://www.w3.org/2000/svg">
<path d="M63.1924 13.5866L63.1916 13.5865C61.2885 13.553 59.7625 13.5469 58.6369 13.5643C57.4931 13.5819 56.808 13.6239 56.5493 13.6747C56.1577 13.7553 55.912 13.8235 55.2641 14.2256C54.5851 14.647 53.5085 15.4087 51.4623 16.8732L51.4614 16.8738C40.288 24.8328 29.162 32.7732 20.7986 38.7544C16.6169 41.7451 13.1261 44.2457 10.6655 46.014C9.4351 46.8981 8.46272 47.5988 7.79048 48.086C7.45422 48.3297 7.19384 48.5193 7.01407 48.6516C6.924 48.7179 6.85544 48.7688 6.80814 48.8046C6.78842 48.8195 6.77523 48.8296 6.76708 48.836C6.74101 48.8736 6.69999 48.979 6.73224 49.1561C6.76058 49.3118 6.82934 49.4239 6.89329 49.4835C6.91898 49.4869 6.95201 49.4907 6.99327 49.4948C7.12812 49.5083 7.32381 49.5225 7.58033 49.537C8.09181 49.5659 8.82446 49.595 9.75178 49.623C11.6053 49.6791 14.224 49.7308 17.3796 49.77L17.3809 49.77C20.2383 49.8128 22.8386 49.8538 24.7311 49.8865C25.6773 49.9029 26.4471 49.9172 26.9839 49.9287C27.2522 49.9344 27.4633 49.9395 27.6096 49.9438C27.6546 49.9451 27.6943 49.9464 27.728 49.9476C27.7487 49.9483 27.7672 49.9491 27.7833 49.9498C27.804 49.9507 27.824 49.9517 27.8411 49.9529C27.849 49.9534 27.8611 49.9544 27.8742 49.9558C27.8804 49.9565 27.8919 49.9579 27.9057 49.9602C27.9089 49.9608 27.9532 49.9674 28.0046 49.9873L28.0632 50.0099L28.1144 50.0463C28.2864 50.1687 28.3299 50.3479 28.3325 50.4599C28.3349 50.5593 28.3091 50.6382 28.2951 50.6763C28.2651 50.7578 28.2199 50.8308 28.1867 50.8809C28.114 50.9902 28.008 51.1225 27.8869 51.2635C27.6404 51.5505 27.2844 51.9282 26.8781 52.338C26.065 53.1582 25.0219 54.136 24.1901 54.8222L24.1896 54.8226C23.1825 55.6512 22.1609 56.5729 21.9032 56.8698L21.9004 56.8731C21.2216 57.6416 20.9724 58.5811 21.1342 59.5869C21.298 60.6043 21.8885 61.7118 22.9331 62.7563L22.9348 62.758C23.3431 63.1701 24.0702 63.7067 24.8703 64.2021C25.6686 64.6965 26.4923 65.1206 27.0782 65.3257L27.0812 65.3267C27.4697 65.4655 27.7777 65.589 27.999 65.7455C28.2659 65.9342 28.3951 66.1595 28.4667 66.4255L28.4695 66.4359L28.4719 66.4465C28.5162 66.645 28.8186 67.535 29.1626 68.4326L29.164 68.4361C29.4172 69.1122 29.5947 69.5355 29.7885 69.8872C29.9786 70.2319 30.1923 70.5219 30.5331 70.9194L30.5343 70.9209C33.3515 74.2342 35.1194 76.7847 36.0263 79.2142C36.9426 81.6689 36.9666 83.9615 36.3837 86.7261C36.2873 87.1851 36.2507 87.4371 36.251 87.6016C36.2512 87.7313 36.2734 87.7854 36.3188 87.8565L36.3237 87.8643L36.3237 87.8643C36.391 87.9742 36.5347 88.0786 36.7154 88.1236C36.8978 88.1691 37.0176 88.1318 37.0634 88.099C37.0628 88.0984 37.088 88.0716 37.1325 87.9901C37.1847 87.8944 37.2443 87.7594 37.3083 87.585C37.4357 87.2376 37.5656 86.7748 37.683 86.2495C37.9181 85.1975 38.0919 83.9465 38.1063 82.9575L38.1063 82.9564C38.1098 82.7447 38.1133 82.5716 38.1209 82.4434C38.1246 82.3796 38.13 82.3148 38.1392 82.256C38.1458 82.2137 38.1629 82.1084 38.2217 82.007C38.2541 81.9512 38.3236 81.8537 38.4532 81.7919C38.5989 81.7224 38.7451 81.7333 38.8532 81.7718C38.9472 81.8053 39.0109 81.8578 39.0427 81.8868C39.0781 81.919 39.1053 81.9513 39.1238 81.975C39.1869 82.0556 39.2518 82.1715 39.3038 82.2642C39.3678 82.3767 39.4328 82.5673 39.4905 82.7486C39.556 82.9546 39.6334 83.22 39.7173 83.5241C39.8852 84.1332 40.0826 84.9108 40.268 85.7059L40.268 85.7061C40.461 86.5358 40.6471 87.2645 40.7976 87.7913C40.8732 88.0558 40.9378 88.2625 40.9882 88.4033C40.9937 88.4186 40.9989 88.4327 41.0037 88.4456C41.0692 88.4572 41.1648 88.461 41.2852 88.4386C41.484 88.4015 41.6186 88.3165 41.6678 88.2559L41.6705 88.2525C41.7199 88.1928 41.7458 88.1433 41.7585 88.0325C41.7745 87.8922 41.7657 87.6759 41.7183 87.2875C41.6921 87.0989 41.6723 86.941 41.6602 86.8146C41.649 86.698 41.6406 86.5741 41.6498 86.4724L41.6499 86.4704C41.6531 86.4354 41.6644 86.3094 41.7437 86.1895C41.7937 86.1139 41.8915 86.0107 42.052 85.9711C42.2086 85.9325 42.3382 85.9759 42.4102 86.012C42.5299 86.072 42.601 86.1658 42.6217 86.1931L42.6225 86.1942C42.6553 86.2374 42.6842 86.284 42.7081 86.3252L42.715 86.3371L42.7148 86.3372C42.8549 86.595 43.0238 87.1383 43.125 87.5217L43.1281 87.5335L43.1279 87.5335C43.2583 88.0815 43.3462 88.2111 43.4302 88.2744C43.5379 88.3556 43.756 88.4204 44.4271 88.4688L44.4306 88.4691C45.2172 88.5313 45.8741 88.4671 46.4813 88.27C47.0895 88.0726 47.6747 87.7333 48.3068 87.2104C48.6823 86.8981 48.9313 86.6824 49.0949 86.4997C49.2522 86.324 49.2865 86.226 49.2947 86.1573C49.3041 86.0783 49.2895 85.9455 49.1712 85.6799C49.0528 85.4142 48.86 85.0774 48.5779 84.6008C47.1711 82.2327 45.6209 79.9921 43.7883 77.7513L43.7863 77.7488C41.7105 75.1768 40.3884 73.8523 37.2628 71.1334C34.6094 68.8385 33.5312 67.7854 32.2616 66.2256L32.2608 66.2245C31.4855 65.2666 31.0102 64.7455 30.4979 64.3662C29.9902 63.9904 29.4209 63.7349 28.4159 63.3606L28.4131 63.3596C27.383 62.9688 26.5049 62.5564 25.8038 62.1314C25.1086 61.7101 24.5574 61.2586 24.2139 60.7777L24.2105 60.773C23.9815 60.4444 23.7791 59.9542 23.6494 59.5227C23.583 59.3021 23.5302 59.079 23.5023 58.88C23.4786 58.7107 23.4582 58.4691 23.5296 58.2636C23.555 58.1892 23.5919 58.1346 23.6066 58.1132C23.6282 58.0818 23.6513 58.0532 23.6714 58.0296C23.712 57.982 23.7617 57.9301 23.8145 57.8776C23.9213 57.7714 24.0654 57.6384 24.2333 57.4894C24.5704 57.1899 25.0223 56.8087 25.5078 56.4136L25.5088 56.4127C27.5333 54.7738 29.363 52.8881 30.4489 51.357C30.7975 50.8503 31.1296 50.4483 31.403 50.2059C31.5251 50.0976 31.6996 49.9617 31.8992 49.9136C32.0115 49.8866 32.1921 49.874 32.3678 49.9832C32.5437 50.0926 32.6129 50.261 32.6386 50.3763C32.6486 50.4211 32.6503 50.4581 32.6508 50.4682C32.6515 50.4844 32.6515 50.4986 32.6514 50.5083C32.6513 50.5174 32.651 50.5266 32.6506 50.5354C32.6502 50.5456 32.6497 50.5555 32.6491 50.5644C32.647 50.5989 32.6434 50.6413 32.639 50.6881C32.6301 50.7828 32.6163 50.9108 32.599 51.0613C32.5643 51.3631 32.5145 51.7646 32.4585 52.1902L32.4577 52.1961C32.2294 53.7867 32.088 55.9994 32.0505 57.9104C32.0318 58.8649 32.0392 59.7357 32.0735 60.4092C32.0907 60.7466 32.1143 61.0273 32.1434 61.241C32.158 61.3479 32.1731 61.4321 32.1878 61.4949C32.2006 61.5493 32.2099 61.5743 32.212 61.5796L63.1924 13.5866ZM63.1924 13.5866C70.0055 13.6964 91.9938 13.9641 108.645 14.1409L63.1924 13.5866ZM39.1062 82.9724C39.1062 82.9727 39.1061 82.9729 39.1061 82.9732L39.0366 82.972L39.1062 82.9724ZM39.1062 82.9724C39.1098 82.7558 39.1131 82.6052 39.1192 82.5021C39.1222 82.4509 39.1253 82.4231 39.1272 82.4106C39.1234 82.4268 39.1122 82.4648 39.0866 82.509C39.0665 82.5436 39.0206 82.6116 38.935 82.6661C38.964 82.7453 38.9981 82.8482 39.0363 82.9711L39.1062 82.9724ZM32.3659 61.7731C32.337 61.7572 32.2809 61.7132 32.2123 61.5806L81.7786 45.7251L81.5775 45.2673C81.5771 45.2675 81.5767 45.2677 81.5763 45.2678C80.6004 45.6968 78.4873 46.8072 76.856 47.7421C73.5486 49.6284 71.8445 50.4273 69.1944 51.3462L69.1941 51.3463C65.8257 52.5166 64.4752 52.7327 57.8106 53.0675C57.8105 53.0675 57.8103 53.0675 57.8101 53.0675L53.506 53.2687L53.4627 53.2707L53.4204 53.2802L49.6528 54.1208C45.5974 55.0256 44.1646 55.5067 40.8037 57.0721L40.8019 57.073C38.8605 57.9864 35.7099 59.805 34.0859 60.9723C33.3256 61.5062 32.8554 61.7382 32.5665 61.7861C32.4417 61.8068 32.3895 61.786 32.3659 61.7731ZM38.6106 82.7366C38.609 82.8048 38.6076 82.8808 38.6062 82.9648C38.6049 83.0575 38.6022 83.1522 38.5983 83.2486C38.5768 83.1771 38.5565 83.1114 38.5376 83.0519C38.5275 83.0202 38.5179 82.9907 38.5089 82.9634C38.5088 82.9633 38.5088 82.9632 38.5088 82.9632C38.4909 82.909 38.475 82.8635 38.4613 82.8267C38.4424 82.7759 38.4332 82.7568 38.4334 82.7567L38.4326 82.7552C38.4032 82.7028 38.3804 82.6628 38.3618 82.6317C38.3415 82.5981 38.3342 82.5887 38.3362 82.5912L38.3363 82.5913C38.3378 82.5932 38.3489 82.6075 38.3692 82.6259C38.3857 82.641 38.4335 82.6824 38.5108 82.7114C38.5127 82.7121 38.5147 82.7128 38.5166 82.7135C38.517 82.7136 38.5174 82.7138 38.5179 82.7139C38.5458 82.7239 38.577 82.7318 38.6106 82.7366Z" fill="black" stroke="white"/>
</svg>
