<svg width="16" height="16" viewBox="0 0 16 16" fill="none" xmlns="http://www.w3.org/2000/svg">
<path d="M14.5 0H1.5C0.675 0 0 0.675 0 1.5V14.5C0 15.325 0.675 16 1.5 16H14.5C15.325 16 16 15.325 16 14.5V1.5C16 0.675 15.325 0 14.5 0ZM11 2.5C11 2.225 11.225 2 11.5 2H13.5C13.775 2 14 2.225 14 2.5V4.5C14 4.775 13.775 5 13.5 5H11.5C11.225 5 11 4.775 11 4.5V2.5ZM8 5C9.656 5 11 6.344 11 8C11 9.656 9.656 11 8 11C6.344 11 5 9.656 5 8C5 6.344 6.344 5 8 5ZM14 13.5C14 13.775 13.775 14 13.5 14H2.5C2.225 14 2 13.775 2 13.5V7H3.1C3.034 7.322 3 7.656 3 8C3 10.762 5.237 13 8 13C10.763 13 13 10.762 13 8C13 7.656 12.966 7.322 12.9 7H14V13.5Z" fill="black"/>
</svg>
